<svg height="512" viewBox="0 0 64 64" width="512" xmlns="http://www.w3.org/2000/svg"><g id="Flat"><g id="Stroke_copy_2" data-name="Stroke copy 2"><g><g><g fill="#5ba006"><path d="m33.376 20.08a.955.955 0 0 1 -.106-.006 1 1 0 0 1 -.89-1.1l.12-1.133a3.992 3.992 0 0 1 2.585-3.333 2.021 2.021 0 0 0 1.261-2.314l-.118-.538a1 1 0 1 1 1.953-.428l.118.538a4.028 4.028 0 0 1 -2.514 4.615 2 2 0 0 0 -1.3 1.672l-.12 1.132a1 1 0 0 1 -.989.895z"/><path d="m26.8 53.572a.973.973 0 0 1 -.107-.006 1 1 0 0 1 -.888-1.1l.12-1.133a3.991 3.991 0 0 1 2.583-3.333 2.021 2.021 0 0 0 1.259-2.314l-.118-.538a1 1 0 0 1 1.951-.428l.118.538a4.031 4.031 0 0 1 -2.513 4.616 2 2 0 0 0 -1.3 1.671l-.121 1.133a1 1 0 0 1 -.984.894z"/><path d="m51.41 38.233a4.034 4.034 0 0 1 -3.766-2.6 2 2 0 0 0 -1.671-1.3l-1.133-.121a1 1 0 1 1 .211-1.989l1.133.12a3.992 3.992 0 0 1 3.333 2.585 2.02 2.02 0 0 0 2.314 1.26l.538-.118a1 1 0 0 1 .428 1.954l-.538.118a3.967 3.967 0 0 1 -.849.091z"/><path d="m17.918 31.656a4.037 4.037 0 0 1 -3.767-2.605 2 2 0 0 0 -1.672-1.3l-1.132-.121a1 1 0 1 1 .212-1.988l1.132.12a3.988 3.988 0 0 1 3.333 2.585 2.023 2.023 0 0 0 2.315 1.259l.537-.118a1 1 0 1 1 .429 1.953l-.538.118a3.964 3.964 0 0 1 -.849.097z"/><path d="m37.159 21.03a1 1 0 0 1 -.919-1.395l.449-1.047a3.988 3.988 0 0 1 3.452-2.423 2.023 2.023 0 0 0 1.886-1.841l.046-.549a1 1 0 1 1 1.992.167l-.045.549a4.032 4.032 0 0 1 -3.762 3.67 2 2 0 0 0 -1.731 1.215l-.449 1.048a1 1 0 0 1 -.919.606z"/><path d="m21 51.1a1 1 0 0 1 -.918-1.4l.449-1.047a3.986 3.986 0 0 1 3.451-2.423 2.023 2.023 0 0 0 1.886-1.841l.046-.549a1 1 0 1 1 1.993.167l-.046.549a4.03 4.03 0 0 1 -3.762 3.67 2 2 0 0 0 -1.73 1.215l-.449 1.047a1 1 0 0 1 -.92.612z"/><path d="m50.222 43.858q-.042 0-.084 0l-.549-.046a4.03 4.03 0 0 1 -3.671-3.762 2 2 0 0 0 -1.215-1.73l-1.048-.449a1 1 0 0 1 .789-1.838l1.047.449a3.988 3.988 0 0 1 2.423 3.452 2.022 2.022 0 0 0 1.841 1.885l.549.046a1 1 0 0 1 -.082 2z"/><path d="m20.155 27.7a.819.819 0 0 1 -.085 0l-.549-.046a4.029 4.029 0 0 1 -3.67-3.761 2 2 0 0 0 -1.215-1.731l-1.047-.449a1 1 0 1 1 .788-1.838l1.047.448a3.994 3.994 0 0 1 2.424 3.453 2.019 2.019 0 0 0 1.839 1.885l.55.046a1 1 0 0 1 -.082 2z"/><path d="m24.1 22.674a1 1 0 0 1 -.787-.382l-.7-.9a2 2 0 0 0 -1.985-.729 4.027 4.027 0 0 1 -4.581-2.576l-.186-.518a1 1 0 0 1 1.883-.676l.186.519a2.021 2.021 0 0 0 2.3 1.292 3.993 3.993 0 0 1 3.96 1.453l.7.9a1 1 0 0 1 -.786 1.617z"/><path d="m47.46 47.562a1 1 0 0 1 -.787-.383l-.7-.9a2 2 0 0 0 -1.985-.728 4.026 4.026 0 0 1 -4.588-2.573l-.186-.517a1 1 0 0 1 1.883-.677l.186.519a2.02 2.02 0 0 0 2.3 1.293 3.982 3.982 0 0 1 3.959 1.452l.7.9a1 1 0 0 1 -.785 1.618z"/></g><path d="m50.819 23.522a2.013 2.013 0 0 1 .82 3.122l-1.35 1.693a5.317 5.317 0 0 1 -3.351 1.941 5.318 5.318 0 0 1 -2.877-.356l-3.461-1.46 1.555-3.685 1.9.8a3.547 3.547 0 0 0 4.332-1.3 2.013 2.013 0 0 1 2.432-.755z" fill="#a1d51c"/><path d="m29.26 12.778a2 2 0 0 0 -2.563-1.2 4 4 0 0 0 -2.391 5.127l1.71 4.7 3.759-1.368-1.71-4.7a2 2 0 0 0 1.2-2.563z" fill="#a1d51c"/><path d="m42.9 25.09-.744-.313-1.556 3.685 3.462 1.46a5.322 5.322 0 0 0 6.227-1.585l1.35-1.693a1.982 1.982 0 0 0 .411-1.506 6.493 6.493 0 0 1 -9.15-.048z" fill="#7ab92d"/><path d="m25.014 12.78a3.983 3.983 0 0 0 -.708 3.929l1.71 4.7 3.759-1.368-.527-1.449a6.493 6.493 0 0 1 -4.234-5.812z" fill="#7ab92d"/><path d="m12.778 34.74a2 2 0 0 0 -1.2 2.563 4 4 0 0 0 5.127 2.391l4.7-1.71-1.365-3.759-4.7 1.71a2 2 0 0 0 -2.563-1.2z" fill="#a1d51c"/><path d="m34.74 51.222a2 2 0 0 0 2.563 1.2 4 4 0 0 0 2.391-5.127l-1.71-4.7-3.759 1.365 1.71 4.7a2 2 0 0 0 -1.2 2.563z" fill="#a1d51c"/><path d="m20.04 34.225-3.006 1.094c-.011.227-.034.451-.034.681a12.965 12.965 0 0 0 .469 3.417l3.939-1.433z" fill="#7ab92d"/><path d="m37.984 42.592-3.759 1.368 1.369 3.761a13.011 13.011 0 0 0 3.4-2.349z" fill="#7ab92d"/><circle cx="32" cy="32" fill="#c4f236" r="13"/><path d="m27.533 29.716a2 2 0 0 0 .25-2.817 2 2 0 0 0 -2.818-.25 6 6 0 0 0 -.748 8.452 2 2 0 0 0 2.818.25 2 2 0 0 0 .249-2.818 2 2 0 0 1 .249-2.817z" fill="#a1d51c"/><path d="m41 32.5a2.5 2.5 0 0 1 -5 0c0-1.381 1.119-1.5 2.5-1.5s2.5.119 2.5 1.5z" fill="#a1d51c"/><path d="m37 39a12.993 12.993 0 0 1 -12.027-17.926 12.995 12.995 0 1 0 19.054 15.852 12.923 12.923 0 0 1 -7.027 2.074z" fill="#a1d51c"/><path d="m38.5 31c-1.242 0-2.265.105-2.459 1.131a5.972 5.972 0 0 1 1.459-.131c1.381 0 2.5.119 2.5 1.5a2.471 2.471 0 0 1 -.313 1.187 2.488 2.488 0 0 0 1.313-2.187c0-1.381-1.119-1.5-2.5-1.5z" fill="#7ab92d"/><path d="m27.533 29.716a2 2 0 1 0 -2.568-3.067 6.23 6.23 0 0 0 -.559.541 2 2 0 0 1 1.127 3.526 2 2 0 0 0 -.429.516 12.892 12.892 0 0 1 -1-3.69c.095-.12.2-.235.3-.35a6 6 0 0 0 -.187 7.909 2 2 0 1 0 3.067-2.568 2 2 0 0 1 .249-2.817z" fill="#7ab92d"/><path d="m27.035 35.351a1.974 1.974 0 0 0 .436-.529 12.932 12.932 0 0 1 -3.371-7.28 6 6 0 0 0 .117 7.559 2 2 0 0 0 2.818.25z" fill="#5ba006"/><circle cx="32" cy="24" fill="#7ab92d" r="1"/><path d="m31.052 41.632a1 1 0 0 1 -.552-1.832 3.313 3.313 0 0 1 2.9-.388 1.34 1.34 0 0 0 1.613-.668 1 1 0 1 1 1.789.9 3.35 3.35 0 0 1 -4.033 1.67 1.329 1.329 0 0 0 -1.16.155.991.991 0 0 1 -.557.163z" fill="#7ab92d"/><path d="m32.766 41.309a3.35 3.35 0 0 0 4.033-1.67.988.988 0 0 0 .07-.646 13.037 13.037 0 0 1 -1.919-.17 1.33 1.33 0 0 1 -1.553.589 3.313 3.313 0 0 0 -2.9.388 1 1 0 1 0 1.109 1.664 1.329 1.329 0 0 1 1.16-.155z" fill="#5ba006"/></g><path d="m32 3a29 29 0 1 0 29 29 29 29 0 0 0 -29-29zm-25 29a24.994 24.994 0 0 1 41.2-19.031l-35.231 35.231a24.9 24.9 0 0 1 -5.969-16.2zm25 25a24.9 24.9 0 0 1 -16.2-5.969l35.231-35.231a24.994 24.994 0 0 1 -19.031 41.2z" fill="#f8664f"/><path d="m49.745 49.607a24.985 24.985 0 0 1 -33.945 1.424l9.121-9.121a29.211 29.211 0 0 1 -2.691-2.966l-9.261 9.256a24.983 24.983 0 0 1 4.6-36.611 28.871 28.871 0 0 1 3.037-6.265 29 29 0 1 0 35.788 42.349 28.8 28.8 0 0 1 -6.649 1.934z" fill="#cc5144"/></g></g></g></svg>